# xmcd
#
# Track frame offsets:
#	150
#	17611
#	35649
#	45468
#	64395
#	80438
#	96810
#	115338
#	136558
#	150544
#	165391
#	182322
#
# Disc length: 2618 seconds
# Revision: 0
# Processed by: cddbd v1.5.2PL0 Copyright (c) Steve Scherf et al.
# Submitted via: dBpowerAMP V12.0
#
DISCID=880a380c
DTITLE=Bev Branson - Just For You
DYEAR=2014
DGENRE=Country
TTITLE0=Single Yellow Rose
TTITLE1=Just Enough To Keep Me Hanging On
TTITLE2=Invisible Tears
TTITLE3=Our Country Fire Volunteers
TTITLE4=Could I Have This Dance
TTITLE5=Rose Garden
TTITLE6=Nobody's Child
TTITLE7=A Bushman Can't Survive
TTITLE8=My Shoes Keep Walking Back To You
TTITLE9=Coat Of Many Colours
TTITLE10=Banks Of The Ohio
TTITLE11=Singing The Blues
EXTD=
EXTT0=
EXTT1=
EXTT2=
EXTT3=
EXTT4=
EXTT5=
EXTT6=
EXTT7=
EXTT8=
EXTT9=
EXTT10=
EXTT11=
PLAYORDER=
